<svg width="40" height="40" viewBox="0 0 40 40" fill="none" xmlns="http://www.w3.org/2000/svg">
<g id="Calendar / Calendar_Check">
<path id="Vector" d="M6.66666 13.3334H33.3333M6.66666 13.3334V28.0004C6.66666 29.8672 6.66666 30.8001 7.02997 31.5132C7.34955 32.1404 7.85911 32.6508 8.48632 32.9704C9.19866 33.3334 10.1316 33.3334 11.9948 33.3334H28.0051C29.8683 33.3334 30.8 33.3334 31.5123 32.9704C32.1395 32.6508 32.6508 32.1404 32.9704 31.5132C33.3333 30.8008 33.3333 29.8692 33.3333 28.006V13.3334M6.66666 13.3334V12.0004C6.66666 10.1335 6.66666 9.19941 7.02997 8.48637C7.34955 7.85916 7.85911 7.3496 8.48632 7.03002C9.19936 6.66671 10.1335 6.66671 12.0003 6.66671H13.3333M33.3333 13.3334V11.9949C33.3333 10.1317 33.3333 9.19871 32.9704 8.48637C32.6508 7.85916 32.1395 7.3496 31.5123 7.03002C30.7993 6.66671 29.8672 6.66671 28.0003 6.66671H26.6667M13.3333 6.66671H26.6667M13.3333 6.66671V3.33337M26.6667 6.66671V3.33337M25 20L18.3333 26.6667L15 23.3334" stroke="white" stroke-width="3" stroke-linecap="round" stroke-linejoin="round"/>
</g>
</svg>
