<svg width="40" height="40" viewBox="0 0 40 40" fill="none" xmlns="http://www.w3.org/2000/svg">
<g id="Edit / Show">
<g id="Vector">
<path d="M5.978 22.9647C8.94372 25.9131 14.1159 29.9999 20.0003 29.9999C25.8847 29.9999 31.0559 25.9131 34.0216 22.9647C34.8038 22.1871 35.1962 21.797 35.4452 21.0335C35.6229 20.4888 35.6229 19.5112 35.4452 18.9665C35.1962 18.203 34.8038 17.8128 34.0216 17.0352C31.0559 14.0868 25.8847 10 20.0003 10C14.1159 10 8.94372 14.0868 5.978 17.0352C5.19523 17.8134 4.80381 18.2027 4.55466 18.9665C4.37696 19.5112 4.37696 20.4888 4.55466 21.0335C4.80381 21.7973 5.19523 22.1865 5.978 22.9647Z" stroke="white" stroke-width="3" stroke-linecap="round" stroke-linejoin="round"/>
<path d="M16.6667 20C16.6667 21.8409 18.1591 23.3333 20 23.3333C21.8409 23.3333 23.3333 21.8409 23.3333 20C23.3333 18.1591 21.8409 16.6667 20 16.6667C18.1591 16.6667 16.6667 18.1591 16.6667 20Z" stroke="white" stroke-width="3" stroke-linecap="round" stroke-linejoin="round"/>
</g>
</g>
</svg>
