<svg width="373" height="137" viewBox="0 0 373 137" fill="none" xmlns="http://www.w3.org/2000/svg">
  <g filter="url(#filter0_d_18_59)">
    <path
      d="M36.84 42H16.76L21.84 13.2H41.92L40.8 19.44H27.92L27 24.84H37.64L36.52 31.08H25.88L25.08 35.76H37.96L36.84 42ZM66.3275 13.2L61.2875 42H54.0475L49.0075 26.24L46.2875 42H39.0475L44.1275 13.2H51.5675L56.5275 27.92L59.1275 13.2H66.3275ZM93.0581 19.44H83.2181L79.2581 42H72.0181L75.9781 19.44H66.0981L67.2181 13.2H94.1781L93.0581 19.44ZM106.67 13.2C109.71 13.2 111.87 13.8667 113.15 15.2C114.11 16.2133 114.59 17.4933 114.59 19.04C114.59 19.5733 114.536 20.1333 114.43 20.72L113.87 23.84C113.55 25.5733 112.99 26.9733 112.19 28.04C111.416 29.1067 110.55 29.8667 109.59 30.32L113.23 42H105.15L101.79 31.24H99.3097L97.6697 42H89.9897L95.0697 13.2H106.67ZM104.15 19.44H101.15L100.11 26.4H102.91C104.323 26.4 105.336 26.0667 105.95 25.4C106.563 24.7067 106.87 23.8 106.87 22.68C106.87 20.52 105.963 19.44 104.15 19.44ZM133.92 42H113.84L118.92 13.2H139L137.88 19.44H125L124.08 24.84H134.72L133.6 31.08H122.96L122.16 35.76H135.04L133.92 42ZM170.617 13.2L165.577 42H158.337L153.297 26.24L150.577 42H143.337L148.417 13.2H155.857L160.817 27.92L163.417 13.2H170.617ZM184.387 12.92C190.814 12.92 194.027 15.5467 194.027 20.8C194.027 21.68 193.934 22.6267 193.747 23.64L192.347 31.64C191.707 35.3467 190.321 38.0933 188.187 39.88C186.054 41.6667 183.054 42.56 179.187 42.56C175.321 42.56 172.627 41.6667 171.107 39.88C170.067 38.6533 169.547 36.96 169.547 34.8C169.547 33.84 169.654 32.7867 169.867 31.64L171.267 23.64C172.521 16.4933 176.894 12.92 184.387 12.92ZM180.267 36.36C181.601 36.36 182.667 36.0133 183.467 35.32C184.267 34.6267 184.827 33.3467 185.147 31.48L186.507 23.8C186.587 23.2667 186.627 22.7867 186.627 22.36C186.627 20.2 185.534 19.12 183.347 19.12C180.601 19.1733 178.961 20.7333 178.427 23.8L177.067 31.48C176.961 32.1467 176.907 32.84 176.907 33.56C176.907 35.4267 178.027 36.36 180.267 36.36Z"
      fill="white" />
  </g>
  <g filter="url(#filter1_b_18_59)">
    <path
      d="M118.68 102.68H88.7117L83.5293 132.423H63.1376L77.4456 51.3064H134.002L130.847 68.8816H94.5701L91.7536 85.1049H121.722L118.68 102.68Z"
      fill="white" fill-opacity="0.2" />
    <path
      d="M118.68 104.18H119.942L120.158 102.936L123.2 85.3607L123.503 83.6049H121.722H93.5365L95.8322 70.3816H130.847H132.102L132.324 69.1466L135.478 51.5714L135.795 49.8064H134.002H77.4456H76.187L75.9684 51.0458L61.6604 132.162L61.3498 133.923H63.1376H83.5293H84.7905L85.007 132.68L89.973 104.18H118.68Z"
      stroke="white" stroke-width="3" />
  </g>
  <g filter="url(#filter2_b_18_59)">
    <path d="M178.048 132.423H126.675L140.983 51.3064H161.262L150.108 114.848H181.203L178.048 132.423Z" fill="white"
      fill-opacity="0.2" />
    <path
      d="M178.048 133.923H179.303L179.525 132.688L182.679 115.112L182.996 113.348H181.203H151.895L162.739 51.5657L163.048 49.8064H161.262H140.983H139.724L139.506 51.0458L125.198 132.162L124.887 133.923H126.675H178.048Z"
      stroke="white" stroke-width="3" />
  </g>
  <g filter="url(#filter3_b_18_59)">
    <path
      d="M226.666 50.5178C244.766 50.5178 253.817 57.9159 253.817 72.7121C253.817 75.1907 253.554 77.857 253.028 80.7111L249.085 103.243C247.283 113.683 243.377 121.419 237.368 126.452C231.36 131.484 222.91 134 212.02 134C201.129 134 193.543 131.484 189.262 126.452C186.333 122.997 184.868 118.227 184.868 112.144C184.868 109.44 185.169 106.473 185.769 103.243L189.713 80.7111C193.243 60.5823 205.56 50.5178 226.666 50.5178ZM215.061 116.537C218.817 116.537 221.821 115.561 224.074 113.608C226.328 111.655 227.905 108.05 228.806 102.793L232.637 81.1618C232.862 79.6596 232.975 78.3077 232.975 77.106C232.975 71.0222 229.895 67.9804 223.736 67.9804C216 68.1306 211.381 72.5244 209.879 81.1618L206.048 102.793C205.748 104.67 205.598 106.623 205.598 108.651C205.598 113.909 208.752 116.537 215.061 116.537Z"
      fill="white" fill-opacity="0.2" />
    <path
      d="M188.118 127.422L188.119 127.424C192.826 132.957 200.967 135.5 212.02 135.5C223.126 135.5 231.964 132.934 238.331 127.602C244.694 122.273 248.721 114.166 250.563 103.502C250.563 103.501 250.563 103.5 250.563 103.499L254.504 80.9829C254.504 80.9807 254.504 80.9785 254.505 80.9764C255.043 78.0498 255.317 75.2938 255.317 72.7121C255.317 64.994 252.942 58.9622 247.978 54.905C243.073 50.8952 235.882 49.0178 226.666 49.0178C215.881 49.0178 207.152 51.591 200.649 56.9046C194.14 62.2231 190.044 70.1365 188.235 80.452L188.235 80.4526L184.293 102.977C183.68 106.276 183.368 109.333 183.368 112.144C183.368 118.46 184.89 123.615 188.118 127.422ZM227.329 102.531L227.328 102.539C226.444 107.695 224.944 110.869 223.092 112.475C221.176 114.135 218.552 115.037 215.061 115.037C212.078 115.037 210.12 114.41 208.924 113.414C207.78 112.46 207.098 110.97 207.098 108.651C207.098 106.702 207.242 104.833 207.528 103.042L211.356 81.4233L211.357 81.4188C212.073 77.3005 213.501 74.3806 215.504 72.4752C217.484 70.5919 220.181 69.5524 223.751 69.4804C226.595 69.4828 228.454 70.1864 229.611 71.3289C230.766 72.47 231.475 74.3 231.475 77.106C231.475 78.2118 231.371 79.4811 231.156 80.9199L227.329 102.531Z"
      stroke="white" stroke-width="3" />
  </g>
  <path
    d="M247.884 39.9271C245.105 40.9786 242.513 41.5044 240.11 41.5044C237.707 41.5044 234.477 40.7158 230.421 39.1385C226.365 37.4861 223.061 36.66 220.507 36.66C216 36.66 211.832 37.3735 208.001 38.8005L206.086 39.5892L208.339 27.0837C208.64 26.6331 209.091 26.0698 209.691 25.3938C210.367 24.7178 211.907 23.8165 214.311 22.6899C216.789 21.5633 219.568 21 222.647 21C225.727 21 229.52 21.8637 234.026 23.5912C238.608 25.3187 242.213 26.1824 244.842 26.1824C247.546 26.1824 249.836 25.9196 251.714 25.3938C253.667 24.7929 254.981 24.2296 255.657 23.7039L256.784 22.8026L254.531 36.322C252.878 37.6739 250.663 38.8756 247.884 39.9271Z"
    fill="white" />
  <g filter="url(#filter4_b_18_59)">
    <!-- <path
      d="M325.502 51.3064L323.586 112.707H326.178L345.781 51.3064H367.862L340.035 132.423H306.237L309.278 80.4857L294.182 132.423H260.383L261.172 51.3064H283.254L281.226 112.707H283.817L303.533 51.3064H325.502Z"
      fill="white" fill-opacity="0.2" /> -->
    <path
      d="M327.001 51.3532L327.049 49.8064H325.502H303.533H302.439L302.105 50.8478L282.782 111.023L284.753 51.3559L284.804 49.8064H283.254H261.172H259.687L259.672 51.2918L258.883 132.408L258.869 133.923H260.383H294.182H295.308L295.622 132.841L307.003 93.6895L304.739 132.335L304.646 133.923H306.237H340.035H341.106L341.454 132.909L369.281 51.7931L369.963 49.8064H367.862H345.781H344.685L344.352 50.8502L325.14 111.026L327.001 51.3532Z"
      stroke="white" stroke-width="3" fill="#FFFFFF33" />
  </g>
  <defs>
    <filter id="filter0_d_18_59" x="0.76001" y="0.919983" width="209.267" height="61.64" filterUnits="userSpaceOnUse"
      color-interpolation-filters="sRGB">
      <feFlood flood-opacity="0" result="BackgroundImageFix" />
      <feColorMatrix in="SourceAlpha" type="matrix" values="0 0 0 0 0 0 0 0 0 0 0 0 0 0 0 0 0 0 127 0"
        result="hardAlpha" />
      <feOffset dy="4" />
      <feGaussianBlur stdDeviation="8" />
      <feComposite in2="hardAlpha" operator="out" />
      <feColorMatrix type="matrix" values="0 0 0 0 0 0 0 0 0 0 0 0 0 0 0 0 0 0 0.6 0" />
      <feBlend mode="normal" in2="BackgroundImageFix" result="effect1_dropShadow_18_59" />
      <feBlend mode="normal" in="SourceGraphic" in2="effect1_dropShadow_18_59" result="shape" />
    </filter>
    <filter id="filter1_b_18_59" x="51.5621" y="40.3064" width="94.026" height="103.116" filterUnits="userSpaceOnUse"
      color-interpolation-filters="sRGB">
      <feFlood flood-opacity="0" result="BackgroundImageFix" />
      <feGaussianBlur in="BackgroundImageFix" stdDeviation="4" />
      <feComposite in2="SourceAlpha" operator="in" result="effect1_backgroundBlur_18_59" />
      <feBlend mode="normal" in="SourceGraphic" in2="effect1_backgroundBlur_18_59" result="shape" />
    </filter>
    <filter id="filter2_b_18_59" x="115.099" y="40.3064" width="77.6901" height="103.116" filterUnits="userSpaceOnUse"
      color-interpolation-filters="sRGB">
      <feFlood flood-opacity="0" result="BackgroundImageFix" />
      <feGaussianBlur in="BackgroundImageFix" stdDeviation="4" />
      <feComposite in2="SourceAlpha" operator="in" result="effect1_backgroundBlur_18_59" />
      <feBlend mode="normal" in="SourceGraphic" in2="effect1_backgroundBlur_18_59" result="shape" />
    </filter>
    <filter id="filter3_b_18_59" x="173.868" y="39.5178" width="90.9489" height="105.482" filterUnits="userSpaceOnUse"
      color-interpolation-filters="sRGB">
      <feFlood flood-opacity="0" result="BackgroundImageFix" />
      <feGaussianBlur in="BackgroundImageFix" stdDeviation="4" />
      <feComposite in2="SourceAlpha" operator="in" result="effect1_backgroundBlur_18_59" />
      <feBlend mode="normal" in="SourceGraphic" in2="effect1_backgroundBlur_18_59" result="shape" />
    </filter>
    <filter id="filter4_b_18_59" x="249.354" y="40.3064" width="130.709" height="103.116" filterUnits="userSpaceOnUse"
      color-interpolation-filters="sRGB">
      <feFlood flood-opacity="0" result="BackgroundImageFix" />
      <feGaussianBlur in="BackgroundImageFix" stdDeviation="4" />
      <feComposite in2="SourceAlpha" operator="in" result="effect1_backgroundBlur_18_59" />
      <feBlend mode="normal" in="SourceGraphic" in2="effect1_backgroundBlur_18_59" result="shape" />
    </filter>
  </defs>
</svg>