<svg xmlns="http://www.w3.org/2000/svg" width="70" height="26" viewBox="0 0 70 26" fill="none">
  <path
    d="M12.6065 18.2612H5.80463L4.62836 25.012H0L3.24752 6.60083H16.0842L15.3682 10.5899H7.13433L6.49505 14.2721H13.297L12.6065 18.2612Z"
    fill="white" />
  <path d="M26.0816 25.012H14.4212L17.6687 6.60083H22.2715L19.74 21.0229H26.7976L26.0816 25.012Z" fill="white" />
  <path
    d="M37.1163 6.42184C41.2247 6.42184 43.2789 8.10101 43.2789 11.4593C43.2789 12.0219 43.2193 12.6271 43.0999 13.2749L42.205 18.3891C41.7958 20.7587 40.9094 22.5146 39.5456 23.6567C38.1818 24.7989 36.264 25.37 33.7921 25.37C31.3202 25.37 29.5984 24.7989 28.6267 23.6567C27.9619 22.8726 27.6295 21.7901 27.6295 20.4092C27.6295 19.7955 27.6976 19.1221 27.834 18.3891L28.729 13.2749C29.5302 8.70619 32.326 6.42184 37.1163 6.42184ZM34.4825 21.4065C35.3349 21.4065 36.0168 21.1849 36.5282 20.7416C37.0396 20.2984 37.3976 19.4801 37.6022 18.2868L38.4716 13.3772C38.5227 13.0362 38.5483 12.7294 38.5483 12.4566C38.5483 11.0758 37.8494 10.3854 36.4515 10.3854C34.6956 10.4195 33.6472 11.4167 33.3062 13.3772L32.4368 18.2868C32.3686 18.713 32.3345 19.1562 32.3345 19.6165C32.3345 20.8098 33.0505 21.4065 34.4825 21.4065Z"
    fill="white" />
  <path
    d="M41.9323 4.92594C41.3015 5.16461 40.7134 5.28394 40.1679 5.28394C39.6224 5.28394 38.8893 5.10494 37.9688 4.74695C37.0482 4.3719 36.2981 4.18438 35.7185 4.18438C34.6957 4.18438 33.7496 4.34633 32.8801 4.67023L32.4454 4.84923L32.9569 2.01084C33.025 1.90856 33.1273 1.7807 33.2637 1.62728C33.4171 1.47385 33.7666 1.26928 34.3121 1.01357C34.8747 0.75786 35.5054 0.630005 36.2044 0.630005C36.9033 0.630005 37.7642 0.82605 38.7871 1.21814C39.8269 1.61023 40.6452 1.80627 41.2419 1.80627C41.8556 1.80627 42.3755 1.74661 42.8017 1.62728C43.2449 1.4909 43.5433 1.36304 43.6967 1.24371L43.9524 1.03914L43.441 4.10767C43.0659 4.41452 42.563 4.68728 41.9323 4.92594Z"
    fill="#FA00FF" />
  <path
    d="M59.5494 6.60083L59.1147 20.5371H59.7028L64.1522 6.60083H69.1641L62.8481 25.012H55.1768L55.8672 13.2237L52.4407 25.012H44.7693L44.9483 6.60083H49.9603L49.5 20.5371H50.0881L54.5631 6.60083H59.5494Z"
    fill="white" />
</svg>